<?xml version="1.0" standalone="no"?>
<!DOCTYPE svg PUBLIC "-//W3C//DTD SVG 20010904//EN"
 "http://www.w3.org/TR/2001/REC-SVG-20010904/DTD/svg10.dtd">
<svg version="1.0" xmlns="http://www.w3.org/2000/svg"
 width="130.000000pt" height="130.000000pt" viewBox="0 0 130.000000 130.000000"
 preserveAspectRatio="xMidYMid meet">
<metadata>
Created by potrace 1.11, written by Peter Selinger 2001-2013
</metadata>
<g transform="translate(0.000000,130.000000) scale(0.100000,-0.100000)"
fill="#000000" stroke="none">
<path d="M120 861 c0 -11 147 -406 160 -431 5 -10 18 -17 27 -16 18 3 22 12
129 286 31 80 58 151 61 158 3 7 -3 12 -15 12 -11 0 -22 -6 -25 -12 -20 -54
-140 -376 -144 -388 -6 -18 -3 -26 -88 201 -36 97 -65 181 -65 188 0 6 -9 11
-20 11 -11 0 -20 -4 -20 -9z"/>
<path d="M688 862 l-28 -3 0 -223 0 -223 118 2 c96 2 124 6 157 23 80 40 118
109 117 207 -1 105 -52 181 -137 205 -43 12 -169 19 -227 12z m212 -100 c46
-34 61 -89 47 -167 -10 -63 -49 -93 -125 -100 l-62 -6 0 149 0 149 58 -3 c35
-3 67 -11 82 -22z"/>
<path d="M1110 472 l0 -57 50 -1 50 -1 0 59 0 58 -50 0 -50 0 0 -58z"/>
<path d="M548 482 c-13 -2 -18 -13 -18 -37 0 -30 2 -33 30 -31 27 1 30 4 30
32 0 33 -12 43 -42 36z"/>
</g>
</svg>
